<?xml version="1.0" encoding="UTF-8"?>
<svg xmlns="http://www.w3.org/2000/svg" viewBox="0 0 190 120" width="190" height="120">
  <!-- ISBN-13 Barcode: 978-8-9947278-0-5 -->
  <!-- EAN-13 encoding for 9798994727805 -->

  <rect width="100%" height="100%" fill="#FFF"/>

  <!-- Barcode bars -->
  <g transform="translate(15, 10)">
    <!-- Start guard: 101 -->
    <rect x="0" y="0" width="2" height="70" fill="#000"/>
    <rect x="4" y="0" width="2" height="70" fill="#000"/>

    <!-- Left side digits (7,9,8,9,9,4) pattern LGGLGL -->
    <!-- 7 (L): 0111011 -->
    <rect x="8" y="0" width="2" height="60" fill="#000"/>
    <rect x="10" y="0" width="2" height="60" fill="#000"/>
    <rect x="12" y="0" width="2" height="60" fill="#000"/>
    <rect x="16" y="0" width="2" height="60" fill="#000"/>
    <rect x="18" y="0" width="2" height="60" fill="#000"/>

    <!-- 9 (G): 0010111 -->
    <rect x="24" y="0" width="2" height="60" fill="#000"/>
    <rect x="28" y="0" width="2" height="60" fill="#000"/>
    <rect x="30" y="0" width="2" height="60" fill="#000"/>
    <rect x="32" y="0" width="2" height="60" fill="#000"/>

    <!-- 8 (G): 0001001 -->
    <rect x="40" y="0" width="2" height="60" fill="#000"/>
    <rect x="46" y="0" width="2" height="60" fill="#000"/>

    <!-- 9 (L): 0001011 -->
    <rect x="54" y="0" width="2" height="60" fill="#000"/>
    <rect x="58" y="0" width="2" height="60" fill="#000"/>
    <rect x="60" y="0" width="2" height="60" fill="#000"/>

    <!-- 9 (G): 0010111 -->
    <rect x="66" y="0" width="2" height="60" fill="#000"/>
    <rect x="70" y="0" width="2" height="60" fill="#000"/>
    <rect x="72" y="0" width="2" height="60" fill="#000"/>
    <rect x="74" y="0" width="2" height="60" fill="#000"/>

    <!-- 4 (L): 0100011 -->
    <rect x="78" y="0" width="2" height="60" fill="#000"/>
    <rect x="86" y="0" width="2" height="60" fill="#000"/>
    <rect x="88" y="0" width="2" height="60" fill="#000"/>

    <!-- Center guard: 01010 -->
    <rect x="92" y="0" width="2" height="70" fill="#000"/>
    <rect x="96" y="0" width="2" height="70" fill="#000"/>

    <!-- Right side digits (7,2,7,8,0,5) all R encoding -->
    <!-- 7 (R): 1000100 -->
    <rect x="100" y="0" width="2" height="60" fill="#000"/>
    <rect x="108" y="0" width="2" height="60" fill="#000"/>

    <!-- 2 (R): 1101100 -->
    <rect x="114" y="0" width="2" height="60" fill="#000"/>
    <rect x="116" y="0" width="2" height="60" fill="#000"/>
    <rect x="120" y="0" width="2" height="60" fill="#000"/>
    <rect x="122" y="0" width="2" height="60" fill="#000"/>

    <!-- 7 (R): 1000100 -->
    <rect x="128" y="0" width="2" height="60" fill="#000"/>
    <rect x="136" y="0" width="2" height="60" fill="#000"/>

    <!-- 8 (R): 1001000 -->
    <rect x="142" y="0" width="2" height="60" fill="#000"/>
    <rect x="148" y="0" width="2" height="60" fill="#000"/>

    <!-- 0 (R): 1110010 -->
    <rect x="156" y="0" width="2" height="60" fill="#000"/>
    <rect x="158" y="0" width="2" height="60" fill="#000"/>
    <rect x="160" y="0" width="2" height="60" fill="#000"/>
    <rect x="166" y="0" width="2" height="60" fill="#000"/>

    <!-- 5 (R): 1001110 -->
    <rect x="170" y="0" width="2" height="60" fill="#000"/>
    <rect x="176" y="0" width="2" height="60" fill="#000"/>
    <rect x="178" y="0" width="2" height="60" fill="#000"/>
    <rect x="180" y="0" width="2" height="60" fill="#000"/>

    <!-- End guard: 101 -->
    <rect x="184" y="0" width="2" height="70" fill="#000"/>
    <rect x="188" y="0" width="2" height="70" fill="#000"/>
  </g>

  <!-- ISBN number text -->
  <text x="10" y="95" font-family="monospace" font-size="11" fill="#000">9</text>
  <text x="30" y="95" font-family="monospace" font-size="11" fill="#000">789899</text>
  <text x="108" y="95" font-family="monospace" font-size="11" fill="#000">472780</text>
  <text x="175" y="95" font-family="monospace" font-size="11" fill="#000">5</text>

  <!-- ISBN label -->
  <text x="95" y="112" text-anchor="middle" font-family="Arial, sans-serif" font-size="9" fill="#000">ISBN 979-8-9947278-0-5</text>
</svg>
